<?xml version="1.0" standalone="no"?>
<!DOCTYPE svg PUBLIC "-//W3C//DTD SVG 20010904//EN"
 "http://www.w3.org/TR/2001/REC-SVG-20010904/DTD/svg10.dtd">
<svg version="1.0" xmlns="http://www.w3.org/2000/svg"
 width="512.000000pt" height="512.000000pt" viewBox="0 0 512.000000 512.000000"
 preserveAspectRatio="xMidYMid meet">
<metadata>
Created by potrace 1.14, written by Peter Selinger 2001-2017
</metadata>
<g transform="translate(0.000000,512.000000) scale(0.100000,-0.100000)"
fill="#000000" stroke="none">
<path d="M2378 5115 c-1 -1 -39 -5 -82 -9 -44 -4 -82 -9 -85 -11 -4 -2 -34 -7
-66 -10 -117 -14 -472 -111 -499 -136 -6 -5 -16 -9 -24 -9 -7 0 -56 -20 -109
-45 -52 -25 -97 -45 -99 -45 -3 0 -53 -28 -112 -62 -169 -97 -296 -187 -432
-307 -85 -75 -107 -97 -204 -201 -194 -210 -364 -480 -479 -760 -63 -153 -134
-403 -151 -531 -3 -19 -7 -50 -10 -69 -17 -101 -23 -226 -20 -410 1 -113 5
-214 7 -225 3 -12 8 -48 12 -80 4 -33 9 -69 12 -80 2 -11 8 -41 13 -66 152
-768 660 -1433 1359 -1784 153 -77 381 -164 493 -190 193 -43 233 -51 320 -61
29 -4 74 -10 100 -14 48 -7 459 -5 513 3 96 15 122 19 145 22 371 62 735 210
1040 423 457 320 795 773 971 1302 28 87 63 218 74 279 3 19 8 37 10 41 2 3 7
33 10 65 4 33 9 63 11 66 24 42 24 630 -1 701 -2 7 -7 31 -9 53 -3 22 -10 65
-16 95 -6 30 -14 66 -16 80 -3 14 -14 57 -25 95 -101 364 -276 694 -514 974
-277 327 -585 550 -1010 732 -94 40 -366 118 -465 133 -19 3 -44 7 -55 10 -11
2 -45 7 -75 11 -30 4 -64 9 -75 12 -22 5 -451 13 -457 8z"/>
</g>
</svg>
